<?xml version="1.0" encoding="UTF-8" standalone="no"?>
<svg
   xmlns:dc="http://purl.org/dc/elements/1.1/"
   xmlns:cc="http://creativecommons.org/ns#"
   xmlns:rdf="http://www.w3.org/1999/02/22-rdf-syntax-ns#"
   xmlns:svg="http://www.w3.org/2000/svg"
   xmlns="http://www.w3.org/2000/svg"
   viewBox="0 0 1133.8533 414.16"
   height="414.16"
   width="1133.8533"
   xml:space="preserve"
   id="svg2"
   version="1.1"><metadata
     id="metadata8"><rdf:RDF><cc:Work
         rdf:about=""><dc:format>image/svg+xml</dc:format><dc:type
           rdf:resource="http://purl.org/dc/dcmitype/StillImage" /></cc:Work></rdf:RDF></metadata><defs
     id="defs6" /><g
     transform="matrix(1.3333333,0,0,-1.3333333,0,414.16)"
     id="g10"><g
       transform="scale(0.1)"
       id="g12"><path
         id="path14"
         style="fill:#000000;fill-opacity:1;fill-rule:nonzero;stroke:none"
         d="m 5950.4,2742.73 h 2457.53 c 52.6,0 95.39,42.79 95.39,95.4 v 5.08 c 0,52.61 -42.79,95.4 -95.39,95.4 H 5950.4 c -52.6,0 -95.42,-42.79 -95.42,-95.4 v -5.08 c 0,-52.61 42.82,-95.4 95.42,-95.4" /><path
         id="path16"
         style="fill:#000000;fill-opacity:1;fill-rule:nonzero;stroke:none"
         d="m 1636.59,1104.33 c 123.83,0 224.21,100.39 224.21,224.21 0,123.84 -100.38,224.22 -224.21,224.22 -123.83,0 -224.21,-100.38 -224.21,-224.22 0,-123.82 100.38,-224.21 224.21,-224.21" /><path
         id="path18"
         style="fill:#000000;fill-opacity:1;fill-rule:nonzero;stroke:none"
         d="m 1318.67,957.082 c 49.9,0 90.35,40.457 90.35,90.368 0,49.88 -40.45,90.34 -90.35,90.34 -49.9,0 -90.36,-40.46 -90.36,-90.34 0,-49.911 40.46,-90.368 90.36,-90.368" /><path
         id="path20"
         style="fill:#000000;fill-opacity:1;fill-rule:nonzero;stroke:none"
         d="m 1000.75,1104.33 c 123.83,0 224.21,100.39 224.21,224.21 0,123.84 -100.38,224.22 -224.21,224.22 -123.828,0 -224.215,-100.38 -224.215,-224.22 0,-123.82 100.387,-224.21 224.215,-224.21" /><path
         id="path22"
         style="fill:#000000;fill-opacity:1;fill-rule:nonzero;stroke:none"
         d="m 4902.85,3066.48 c 22.73,0 41.22,-18.96 41.22,-42.28 0,-8.15 -2.37,-15.7 -6.28,-22.16 -0.91,-1.41 -4.31,-5.99 -5.12,-6.86 -7.8,-8.06 -18.42,-12.85 -29.82,-12.85 -11.42,0 -22.05,4.79 -29.83,12.85 -0.76,0.82 -4.23,5.48 -5.18,7 -3.86,6.43 -6.21,13.93 -6.21,22.02 0,23.32 18.49,42.28 41.22,42.28 z m -454.32,-88.16 c -0.51,-156.86 -79.87,-222.55 -273.92,-226.72 l -13.87,-0.3 v -124.81 l 13.87,-0.29 c 5.83,-0.12 11.58,-0.18 17.28,-0.18 132.15,0 232.01,32.62 297,97.07 48.17,47.77 76.49,112.8 85.22,192.98 V 2725.5 c 0.37,-53.27 49.28,-102.21 102.78,-102.68 h 303.28 v 121.13 H 4717.2 c -3.03,0.18 -3.89,0.48 -3.91,0.48 -0.13,0.15 -2.85,3.23 -2.18,21.57 v 119.61 h 253.58 v -69.74 h 424.57 v 142.03 h -400.69 v 63.51 h -4.87 c 0.02,0.96 0.14,1.91 0.14,2.88 0,45.16 -36.34,81.89 -80.99,81.89 -44.66,0 -80.99,-36.73 -80.99,-81.89 0,-0.97 0.12,-1.92 0.15,-2.88 h -110.9 v 68.24 h -137 v -50.25 h -126.24 l 0.68,-14.81 c 0.72,-15.88 0.4,-30.78 -0.02,-46.27" /><path
         id="path24"
         style="fill:#000000;fill-opacity:1;fill-rule:nonzero;stroke:none"
         d="m 3862.8,2960.85 h 150.54 c -1.77,-72.08 -19.42,-124.03 -53.79,-158.51 -47.35,-47.54 -120.7,-54.09 -192.92,-54.09 h -14.17 v -128.74 l 18.7,-0.01 c 1.69,0 3.48,-0.01 5.36,-0.01 55.71,0 188.12,2.71 277.64,92.52 58.74,58.91 88.7,144.97 89.52,255.53 h 259.58 v 125.4 h -259.35 -3.26 -406.59 v -225.8 h 128.74 v 93.71" /><path
         id="path26"
         style="fill:#000000;fill-opacity:1;fill-rule:nonzero;stroke:none"
         d="m 5537.4,2825.89 c -42.65,-46.39 -97.04,-77.55 -121.22,-77.55 -10.22,-0.11 -15.31,0 -19.57,0.1 -5.16,0.1 -9.06,0.19 -18.36,-0.12 l -13.72,-0.44 v -123.95 l 13.16,-0.94 c 103.26,-7.39 189.15,28.91 256.34,107.78 41.35,-73.92 92.56,-94.44 138.13,-112.72 l 19.45,-7.78 v 131.63 l -8.06,3.86 c -30.62,14.67 -59.47,45.15 -83.73,88.36 14.93,33.16 27.85,70.73 26.72,118.93 v 108.83 h -332.43 v -123.01 h 199.07 c -1.56,-35.56 -21.01,-75.16 -55.78,-112.98" /><path
         id="path28"
         style="fill:#000000;fill-opacity:1;fill-rule:nonzero;stroke:none"
         d="m 5567.89,1954 c 45.99,-36.4 75.72,-92.46 75.72,-155.63 0,-63.18 -29.73,-119.23 -75.72,-155.64 z m -255.3,-303.48 c -40.64,36.4 -66.44,89.03 -66.44,147.85 0,58.82 25.8,111.46 66.44,147.85 z m 294.51,725.79 178.68,51.47 -188.86,38.62 c -24.71,64.62 -84.98,110.44 -155.32,110.44 -69.6,0 -129.24,-44.84 -154.45,-108.34 l -178.08,-47.64 166.39,-40.66 c 7.24,-63.51 46.71,-116.61 100.87,-140.66 v -45.2 c -167.1,-31.63 -293.3,-176.94 -293.3,-351.07 0,-109.74 50.1,-208 129,-273.56 l -71.84,-96.08 61.65,-5.98 -59.26,-94.58 h 114.04 l -74.21,-261 106.83,0.59 23.35,-393.558 c -195.12,4.457 -342.13,-281.911 129.9,-30.532 189.5,-190.711 362.77,-105.851 118.52,23.629 l 24.83,401.661 93.4,0.61 -53.29,258.6 h 100.26 l -59.25,94.86 59.25,5.7 -63.14,84.4 c 87.43,65.26 143.96,168.8 143.96,285.24 0,174.01 -126.31,319 -293.31,350.77 v 49.08 c 49.36,24.93 85.37,74.23 93.38,133.19" /><path
         id="path30"
         style="fill:#000000;fill-opacity:1;fill-rule:nonzero;stroke:none"
         d="m 8001.52,489.738 c 26.17,41.153 53.29,87.864 79.32,137.383 26.02,-9.742 52.56,-18.769 79.76,-26.871 l -61.79,-110.512 z m -74.25,156.121 c 22.42,34.383 43.38,69.52 62.67,105.071 l 56.75,-66.231 c -21.55,-42.801 -44.19,-83.937 -66.56,-121.578 z m -60.53,-244.429 -52.16,93.062 c 27.28,32.18 53.34,65.77 77.97,100.399 L 7947,509.66 c -29.76,-46.031 -57.7,-83.738 -80.26,-108.23 z m -160.87,-138.032 -30.48,89.223 c 32.6,28.359 64.24,59.149 94.68,91.789 l 49.69,-88.648 c -36.06,-32.992 -74.31,-63.813 -113.89,-92.364 z m -195.04,-115.839 6.36,91.171 c 36.63,21.192 73.07,45.59 109.12,73.489 0.77,0.601 1.55,1.242 2.33,1.851 l 28.74,-84.109 c -47.75,-31.231 -96.99,-58.809 -146.55,-82.402 z m -58.63,-25.817 c -50.08,-20.461 -99.93,-36.5506 -148.41,-47.5428 l 24.82,85.8708 c 43.17,11.129 86.45,26.871 129.57,47.43 z M 7241.47,62.8008 c -25.32,-3.5 -50.18,-5.711 -74.16,-6.0313 -19.12,-0.2773 -37.94,0.4922 -56.52,2 l 56.94,82.0115 c 32.51,-0.672 65.25,1.508 98.15,6.481 z m -193.91,4.3594 c -33.82,6.3007 -66.64,15.2695 -98.48,26.2617 l 54.89,77.2501 c 26.34,-9.442 51.72,-16.832 75.6,-21.223 7.55,-1.379 15.14,-2.379 22.73,-3.449 z m -258.43,100.8318 73.38,67.438 c 29.78,-16.02 58.97,-30.45 87.34,-43 l -55.35,-77.899 c -36.58,15.711 -71.7,33.86 -105.37,53.461 z m -139.13,92.867 78.43,53.071 c 28.86,-17.989 57.68,-35.34 86.24,-51.77 l -71.73,-65.93 c -32.52,20.891 -63.49,42.77 -92.94,64.629 z m -101.53,78.68 c -4.21,3.34 -8.3,6.582 -12.45,9.871 l 57.46,51.52 c 27.21,-17.91 54.87,-35.989 82.72,-53.879 l -73.83,-49.949 c -18.67,14.507 -36.67,28.769 -53.9,42.437 z m -57.82,45.352 c -12.16,9.32 -24.04,18.281 -35.32,26.339 -12.11,8.661 -23.72,16.571 -35.02,24.071 l 58.41,40.89 c 21.23,-13.679 43.3,-28.16 65.81,-42.992 z m -187.64,114.898 44.34,53.91 c 22.3,-10.707 49.28,-26.16 79.38,-44.66 l -59,-41.297 c -23.35,13.246 -44.88,23.867 -64.72,32.047 z m -62.77,19.52 c -15.37,3.05 -29.62,4.523 -42.79,4.523 -6.96,0 -13.54,-0.5 -19.96,-1.211 l 13.1,43.219 86.93,-1.192 z m -142.1,557.291 v 458.18 c 145.34,-10.6 245.36,-100.83 275.73,-158.99 l 53.49,13.14 v 435.33 l -53.53,13.04 c -67.09,-129.59 -147.25,-160.37 -275.69,-163.91 v 439.68 c 0,145.76 111.67,205.29 207.26,211.98 105.17,7.37 219.77,-44.91 235.82,-159.05 l 47.23,3.3 c -0.13,-5.13 -0.19,-10.32 -0.19,-15.51 V 1062.85 c 0,-10.92 0.16,-21.68 0.52,-32.28 l -47.11,-64.07 c -72.42,-98.531 -198.48,-111.91 -291.33,-81.449 -95.3,31.25 -152.2,102.859 -152.2,191.549 z m 13.8,-574.76 c -2.05,-1.09 -4.12,-2.16 -6.13,-3.301 -11.6,0.359 -22.73,0.68 -33.52,0.973 l 0.01,27.308 c 0.07,16.731 0.01,29.442 -0.44,39.391 3.95,0.398 7.94,0.98 11.84,1.098 l 47.89,-0.661 z m -96.35,25.219 -0.01,-26.2 c -43.55,0.871 -78.97,1.172 -107.45,1 34.33,19.981 71.03,39.192 107.32,51.61 0.12,-6.637 0.19,-15.149 0.14,-26.41 z M 7539.14,319.301 C 7424.18,242.109 7265.46,173.039 7089.81,205.23 c -72.86,13.372 -165.32,58.61 -260.33,114.071 z m -946.27,651.097 c 12.72,-121.269 51.54,-218.796 115.88,-290.668 69.16,-77.25 166.78,-119.781 274.85,-119.781 214.72,0 444.62,171.172 444.62,425.981 v 350.51 C 7493.84,1073.22 7661.63,852.621 7902.45,711.621 7854.03,632.742 7797.27,557.23 7735.04,489.738 H 6561.77 c -42.94,28.242 -83,54.223 -118.7,75.754 h 149.8 z M 6922.7,2060.53 c -0.94,62.3 16.39,105.75 50.09,125.67 13.58,8.02 28.29,11.31 42.25,11.31 15.77,0 30.59,-4.22 41.7,-10.55 12.69,-7.25 20.26,-17.07 20.26,-26.29 0,-17.73 1.39,-39.83 2.99,-65.42 4.99,-79.33 13.36,-212.12 -29.54,-247.67 l -60.56,-50.19 h 427.96 c -12.35,-62.11 -19.18,-125.54 -20.2,-189.35 -0.98,-61.15 3.12,-120.92 12,-178.95 H 7013.9 l 22.87,-41.93 c 28.07,-51.46 43.52,-160.69 43.52,-307.58 0,-56.57 -40.68,-90.381 -80.02,-90.381 -13.96,0 -34.13,4.293 -51,24.791 -17.38,21.16 -26.57,54.29 -26.57,95.83 z m 947.44,-524.12 v -102.15 c 0,-39.29 30.39,-68.9 70.68,-68.9 17.72,0 34.41,6.04 46.99,17.03 6.84,5.97 12.1,13.3 15.89,21.45 -12.71,-109.37 -4.17,-237.78 51.57,-328.54 -13.68,-62.76 -35.33,-127.968 -63.71,-193.249 -229.19,214.799 -299.67,514.749 -308.29,654.359 z m 140.21,-6.58 h 19.17 c -4.57,-15.1 -8.76,-30.82 -12.48,-47.2 -2.46,-10.85 -4.64,-22.26 -6.69,-33.88 z m 52.82,-108.84 76.84,-46.11 c -4.17,-35.27 -4.69,-73.01 0.03,-112.12 -29.2,6.74 -67.15,15.52 -83.73,19.36 -2.54,46.32 0.12,94.04 6.86,138.87 z m 122.69,252.45 h 0.02 c 1.23,0.6 2.64,0.89 4.17,0.89 7.4,0 17.75,-6.74 26.1,-17.51 15.1,-19.48 22.89,-50.31 4.29,-71.99 -6.72,-7.83 -13.77,-17.79 -20.81,-29.28 l -72.53,57.42 c 17.95,29.14 38.02,50.26 58.76,60.47 z m -4.81,-335.17 11.72,89.34 c 17.55,-25.78 34.04,-49.08 51.64,-72.14 z m 107.12,-36.56 c 13.73,-15.83 28.65,-32.24 45.64,-49.95 -2.58,-1.14 -124.7,-48.43 -124.7,-48.43 -18.17,33.51 -23.11,53.3 -25.59,90.41 z m 103.17,-74.77 -9.9,-39.58 -64.33,-37.11 -66.61,6.96 17.52,5.74 c 0.02,-0.04 0.03,-0.08 0.05,-0.12 37.91,16.7 123.27,64.11 123.27,64.11 z m -187.4,-182.36 c -14.19,-9.86 -48.91,-7.5 -86.41,40.07 -2.17,2.74 -4.07,5.78 -6.11,8.66 l 86.93,-4.41 c 2.51,-4.36 4.97,-8.73 7.67,-13.08 8.04,-13 7.27,-24.69 -2.08,-31.24 z m -139.14,-131.959 62,-43.812 C 8111.53,826.371 8093.42,783 8073.66,740.379 l -55.67,64.953 c 17.45,35.68 33.12,71.559 46.81,107.289 z m 87.17,288.059 c 4.71,-17.73 10.68,-35.6 17.94,-53.54 l -88.63,4.5 c -8.03,21.69 -14.07,45.09 -18.25,69.6 27.7,-6.41 68.45,-15.83 88.94,-20.56 z m -53.45,354.42 72.55,-57.44 c -7.68,-19.19 -14.7,-40.24 -20.31,-63.09 l -75.96,45.58 c 6.59,27.04 14.63,52.16 23.72,74.95 z m 46.95,-630.03 -60.95,43.071 c 5.76,17.64 10.83,35.149 15.52,52.569 20.56,-18.3 41.51,-29.198 61.35,-34.151 -4.39,-19.957 -9.56,-40.411 -15.92,-61.489 z m -2470.41,-632.601 -1.83,23.851 h 45.37 c -14.61,-8.281 -29.1,-16.23 -43.54,-23.851 z m -129.26,-55.649 -1.71,72.328 c 6.82,2.25 13.58,4.594 20.11,7.172 h 52.16 l 3.91,-50.84 c -24.75,-11.191 -49.49,-20.89 -74.47,-28.66 z m -176.15,-17.019 42.91,69.031 c 25.58,-0.242 50.82,2 75.12,6.25 l 1.72,-72.113 c -38.64,-6.949 -78.29,-8.508 -119.75,-3.168 z m -59.2,12.179 c -38.88,10.95 -79.59,28.2 -122.68,52.829 l 57.04,46 c 33.11,-18.098 68.58,-29.821 104.63,-36.11 z m -264.58,154.122 75.92,53.937 c 12.55,-12.687 24.99,-26.07 37.29,-40.301 11.47,-13.277 23.84,-24.929 36.7,-35.597 l -58.89,-47.512 c -29.19,19.781 -59.43,42.73 -91.02,69.473 z m -43.97,38.328 c -25.66,21.968 -50.71,40.371 -75.11,55.199 l 57.55,65.769 c 32.34,-17.406 64.09,-39.289 95.13,-65.847 z m -200.02,100.3 10.19,69.68 c 1.33,-0.058 2.62,-0.019 3.95,-0.09 38.85,-2.09 77.05,-10.25 114.52,-24.289 l -55.83,-63.801 c -25.1,10.309 -49.4,16.5 -72.83,18.5 z m -57.88,-4 c -25.42,-6.148 -43.61,-17 -55.09,-25.828 l -4.02,70.59 h 6.93 l 2.19,15.957 c 19.43,4.949 39.54,8.93 60.5,11.133 z m -226.37,-23.14 c 29.2,20.801 66.86,43.691 110.78,62.051 l 3.76,-65.942 z m -287.8,-234.258 3.22,51.57 102.15,2.368 c -33.38,-19.93 -68.2,-38.68 -105.37,-53.938 z m -58.08,-20.012 c -21.52,-5.98 -43.85,-10.609 -67.21,-13.441 v 69.453 c 24.93,4.5 42.54,10.418 51.17,13.77 l 20.43,0.468 z m -123.91,-16.558 c -31.74,0.207 -65.26,3.707 -100.93,11.347 l 50.76,57.11 c 17.96,-1.629 34.75,-2.09 50.17,-1.649 z m -162.07,27.949 c -46.58,15.168 -96.64,37.199 -150.69,67.328 l 53.37,41.703 c 51.52,-29.051 99.66,-47.031 143.13,-57.5 z m -292.46,158.969 64.86,43.242 c 2.66,-2.211 5.35,-4.332 8,-6.602 24.15,-20.75 47.85,-38.828 71.01,-54.679 l -54.54,-42.61 c -28.67,17.938 -58.42,38.098 -89.33,60.649 z m -93.75,59.101 60.77,49.918 c 16.75,-8.937 33.35,-18.789 49.69,-29.719 l -67.25,-44.859 c -14.18,8.82 -28.6,17.008 -43.21,24.66 z m -100.29,42.367 37.19,56.684 c 22.37,-6.141 44.7,-13.641 66.87,-22.562 l -60.89,-50.028 c -14.25,5.797 -28.64,11.149 -43.17,15.906 z m -57.46,15.801 c -18.07,4.11 -36.28,7.43 -54.63,9.961 l 5.07,54.102 c 27.99,-1.621 56.46,-4.782 85.11,-9.871 z m -111.09,15.293 c -10.84,0.539 -21.7,0.906 -32.59,0.906 -6.06,0 -12.13,-0.257 -18.2,-0.429 l 2.86,47.32 c 17.18,1.25 34.75,2.031 52.62,2.25 z m -107.85,-3.562 c -23.16,-2.629 -46.34,-6.481 -69.5,-11.559 l -3.64,43.688 c 7.79,1.652 15.53,3.363 23.47,4.851 16.76,3.172 34.3,6.012 52.42,8.449 z m -173.06,-42.5 h -17.53 l 3.56,44.55 c 18.6,5.911 38,11.579 58.08,16.891 l 3.76,-45.141 c -16,-4.898 -31.97,-10.21 -47.87,-16.3 z m -266.22,-5.801 -6.09,-4.641 h -14.39 c 3.44,25.453 0.91,51.492 -7.27,75.754 h 134.27 l -6.29,33.567 c -20.73,110.73 -24.45,229.082 -11.01,364.73 35.52,-138.707 75.79,-259.48 123.63,-372.129 -110.42,-36.859 -190.16,-79.988 -212.85,-97.281 z m 191.79,5.801 h -58.74 c 18.24,7.922 38.71,16.16 60.69,24.351 z m 362.11,2023.77 c 72.24,-91.4 72.25,-473.43 72.25,-912.49 0,-61.2 0.43,-122.04 0.84,-181.77 2.41,-343.87 4.63,-670.87 -81.4,-777.331 -4.79,-0.097 -9.56,-0.277 -14.33,-0.449 -66.16,793.91 -15.49,1717.57 22.64,1872.04 z m -632.75,62.24 h -263.05 l 43.1,-47.43 c 2.31,-2.54 4.68,-5.05 7.03,-7.56 l -248.67,-255.24 c -33.42,37.34 -69.43,72.3 -107.63,104.75 l 277.67,270.38 -13.09,19.61 c -17.48,26.19 -28.75,51.28 -34.06,74.43 -2.9,12.66 -3.95,24.72 -3.17,36.03 0.02,0.27 -0.01,0.56 0.01,0.82 0.39,5.05 1.3,9.88 2.45,14.6 0.17,0.69 0.21,1.44 0.4,2.13 1.42,5.25 3.31,10.3 5.72,15.09 14.89,29.64 49.04,50.04 87.01,51.98 29.7,1.56 56.47,-8.42 73.55,-27.26 2.4,-2.65 4.61,-5.48 6.63,-8.47 1.21,-1.79 2.21,-3.76 3.28,-5.67 0.72,-1.27 1.54,-2.46 2.19,-3.79 1.35,-2.75 2.5,-5.67 3.58,-8.64 0.22,-0.6 0.52,-1.15 0.73,-1.76 1.19,-3.48 2.19,-7.12 3.02,-10.89 0.04,-0.14 0.09,-0.27 0.12,-0.42 3.43,-15.71 3.73,-33.77 0.84,-53.75 -0.05,-0.33 -0.06,-0.64 -0.11,-0.97 l -5,-33.39 33.75,0.85 c 61.41,1.52 104.09,-20.76 120.28,-62.77 7.63,-19.82 8.4,-41.91 3.42,-62.66 z m 0.61,-2097.588 c -1.04,-4.704 -2.31,-9.36 -4.05,-13.872 -16.19,-42.039 -58.83,-64.16 -120.26,-62.808 l -33.75,0.848 5,-33.399 c 0.6,-4.031 0.83,-7.832 1.15,-11.68 l -3.36,-1.222 c -64.21,-23.528 -126.81,-29.059 -187.43,-21.559 -0.06,0.93 -0.26,1.809 -0.28,2.75 -0.01,0.238 -0.01,0.481 -0.02,0.731 -0.18,9.781 1.03,20.089 3.57,30.851 0.12,0.52 0.23,1.028 0.36,1.539 1.29,5.219 2.89,10.539 4.82,15.961 0.22,0.617 0.48,1.258 0.71,1.879 1.84,5.031 3.96,10.149 6.34,15.34 0.29,0.621 0.53,1.219 0.82,1.84 2.53,5.379 5.4,10.859 8.51,16.398 0.66,1.172 1.36,2.36 2.05,3.543 3.26,5.629 6.71,11.309 10.57,17.09 l 13.09,19.609 -17.78,17.297 -245.05,238.633 c 37.51,33.02 72.7,68.578 105.39,106.379 L 2356.7,628.648 c -5.99,-3.359 -11.96,-5.898 -17.54,-6.886 l 4.96,-56.27 h 249.69 c 12.79,-23.273 17.23,-51.172 11.54,-76.89 z m -112.73,-239.704 -2.08,21.473 -3.87,39.988 18.81,-0.777 102.24,-4.203 c -37.18,-21.129 -75.24,-40.688 -115.1,-56.481 z m -178.8,-37.878 36.52,75.652 c 26.43,2.187 53.2,6.867 80.27,14.207 l 6.85,-70.828 c -38.99,-11.153 -79.96,-18.09 -123.64,-19.031 z m -61.68,2.66 c -34.43,3.672 -70.56,11.14 -108.71,23.129 l 59.69,61.82 c 4.28,-1.02 8.6,-1.887 12.9,-2.809 v 0 c 11.33,-2.39 22.72,-4.422 34.19,-6.031 0.96,-0.141 1.91,-0.238 2.86,-0.367 11.26,-1.512 22.58,-2.731 33.99,-3.402 z m -167.01,44.39 c -32.32,13.399 -66.04,29.961 -101.33,50.071 l 70.74,47.929 c 13.23,-6.988 26.62,-13.539 40.14,-19.672 0.08,-0.039 0.17,-0.078 0.25,-0.117 13.56,-6.152 27.29,-11.789 41.14,-16.98 v 0 c 1.99,-0.742 3.96,-1.559 5.97,-2.289 z m -246.22,146.59 70.94,46.02 c 29.02,-22.391 59.05,-43.719 90.07,-63.129 l -69.46,-47.059 c -29.43,18.918 -59.93,40.289 -91.55,64.168 z m -74.6,59.531 c -0.92,0.77 -1.85,1.559 -2.77,2.329 -8.99,7.57 -18.04,15.289 -27.2,23.218 -11.05,9.594 -22.18,19.371 -33.49,29.543 l 88.5,34.188 c 23.08,-21.36 47.12,-42.789 72.04,-63.731 0.65,-0.539 1.27,-1.109 1.92,-1.656 l -71.63,-46.461 c -9.02,7.289 -18.16,14.84 -27.37,22.57 z m -189.28,175.411 c 48.01,20.847 73.77,31.5 87.36,36.898 6.22,-6.121 12.49,-12.309 18.85,-18.609 19.77,-19.539 40.63,-40.161 62.47,-61.243 l -89.36,-34.527 c -25.77,24.289 -52.2,50.109 -79.32,77.481 z m 56.46,-149.864 c 2.67,2.723 5.34,5.332 8,8.121 3,-2.789 5.94,-5.367 8.94,-8.121 z M 1316.47,387.781 c -104.06,-1.402 -211.16,56.328 -319.673,171.258 19.513,15.492 38.903,30.582 58.203,45.301 86.16,-36.11 178.24,-54.488 270.3,-54.488 75.24,0 150.4,12.238 222.19,36.718 17.13,-17.179 34.04,-33.711 50.8,-49.808 C 1505.21,439.09 1410.73,388.961 1316.47,387.781 Z M 912.371,489.738 c 13.395,11.391 26.715,22.512 39.961,33.403 0.238,-0.09 0.481,-0.18 0.719,-0.27 10.914,-11.621 21.84,-22.551 32.773,-33.133 z m -85.808,0 c -7.571,-6.699 -15.059,-13.168 -22.696,-20.066 l -21.523,79.66 c 12.094,11.188 24.469,22.316 36.847,33.457 7.747,6.973 15.579,13.922 23.414,20.883 12.833,11.34 25.676,22.68 38.844,33.969 l 21.309,-82.25 c -25.02,-20.821 -50.481,-42.86 -76.195,-65.653 z m 317.307,268.653 17.42,55.648 c 25.12,-4.769 51.41,-8.398 78.78,-10.891 l -2.65,-57.156 c -31.06,2.778 -62.25,6.817 -93.55,12.399 z m 47.48,-53.371 0.41,0.3 c 6.44,-0.82 12.87,-1.461 19.3,-2.179 L 1191,620.91 c -27.97,5.969 -55.63,13.711 -82.73,23.43 27.74,20.582 55.41,40.73 83.08,60.68 z m -81.01,11.289 c -3.42,-2.489 -6.87,-5.059 -10.3,-7.579 l -4.29,11.59 z m -57.74,-42.77 c -32.71,-24.559 -65.94,-50.16 -99.768,-77.25 l -21.605,83.402 c 25.742,21.34 51.957,42.629 78.923,63.891 6.11,-1.793 12.23,-3.262 18.35,-4.953 z m -18.31,110.09 36.96,53.223 c 14.75,-4.75 30.06,-9.012 45.72,-12.961 l -17.68,-56.493 c -21.65,4.782 -43.32,10.114 -65,16.231 z m 248.4,-40.77 2.66,57.243 c 12.14,-0.481 24.46,-0.762 37.03,-0.762 9.86,0 19.63,0.219 29.34,0.539 l -1.41,-57.82 c -22.42,-0.469 -44.96,-0.239 -67.62,0.8 z m 46.29,-46.519 c 9.36,0 18.64,0.512 27.97,0.769 l 19.52,-88.39 c -43.06,-3.457 -86.43,-2.5 -129.39,2.773 l 21.16,86.75 c 20.32,-1.203 40.58,-1.902 60.74,-1.902 z m 66.76,47.629 1.43,58.633 c 26.28,2.238 52.01,5.648 77.15,10.25 l 14.09,-57.922 c -30.54,-5.11 -61.44,-8.84 -92.67,-10.961 z m 42.83,-41.649 c -0.65,-0.59 -0.98,-1.109 -0.67,-1.441 22.03,-23.84 43.7,-46.738 65.11,-68.918 -23.06,-6.75 -46.45,-12.09 -70.03,-16.141 l -18.67,84.52 c 8.08,0.68 16.22,1.109 24.26,1.98 z m 80.13,119.989 c 17.6,4.312 34.93,9.113 51.89,14.621 l 30.09,-56.098 c -22.28,-6.684 -44.84,-12.492 -67.63,-17.461 z m 83.81,-88.2 c 5.02,-4.64 10.2,-9.539 15.42,-14.488 -19.4,-8.062 -46.68,-19.75 -85.26,-36.609 -9.05,9.437 -18.18,19.047 -27.39,28.84 32.84,5.82 65.32,13.117 97.23,22.257 z M 2214.12,489.738 H 1951.2 c -38.54,29.492 -75.55,61.352 -110.86,93.711 58.72,31.242 114.47,67.352 166.25,108.383 z M 747.832,1155.87 c -27.457,42.57 -49.227,86.15 -66.066,128.36 -0.321,0.8 -0.668,1.62 -0.985,2.42 -3.711,9.4 -7.113,18.7 -10.347,27.92 -0.7,2.01 -1.411,4.02 -2.094,6.02 -2.848,8.37 -5.485,16.64 -7.953,24.81 -0.867,2.89 -1.699,5.76 -2.528,8.62 -2.117,7.35 -4.121,14.63 -5.941,21.78 -0.953,3.77 -1.813,7.48 -2.688,11.18 -1.457,6.17 -2.894,12.32 -4.132,18.3 -1.047,5.09 -1.926,10.02 -2.813,14.95 -0.805,4.43 -1.683,8.93 -2.367,13.23 -1.445,9.16 -2.684,18.1 -3.59,26.61 -0.152,1.39 -0.254,2.71 -0.39,4.08 -0.606,6.16 -1.094,12.13 -1.426,17.88 -0.137,2.3 -0.235,4.53 -0.328,6.76 -0.192,4.5 -0.278,8.82 -0.297,13.03 -0.016,2.77 -0.016,5.49 0.039,8.13 0.043,1.91 0.148,3.69 0.238,5.51 0.051,1.2 0.094,2.41 0.156,3.58 0.176,3.13 0.34,6.25 0.621,9.15 0.082,0.83 0.207,1.54 0.297,2.35 0.11,0.78 0.203,1.58 0.305,2.38 0.5,4.07 1.086,7.92 1.766,11.55 0.781,3.84 1.597,7.61 2.617,10.79 v 0.01 c 29.375,91.44 195.269,122.25 682.714,126.76 33.68,0.31 65.86,0.47 96.66,0.47 419.33,0 576.63,-29.54 591.39,-107.12 14.83,-78.11 -20.33,-308.84 -168.89,-488.31 -8.22,-9.91 -16.64,-19.48 -25.25,-28.77 -2.86,-3.08 -5.86,-5.95 -8.76,-8.97 -5.84,-6.05 -11.68,-12.13 -17.7,-17.91 -3.57,-3.43 -7.28,-6.65 -10.92,-9.99 -5.52,-5.06 -11.04,-10.15 -16.71,-14.99 -3.98,-3.39 -8.09,-6.6 -12.15,-9.881 -5.52,-4.469 -11.03,-8.938 -16.68,-13.2 -4.29,-3.23 -8.68,-6.289 -13.04,-9.398 -5.61,-3.992 -11.22,-7.969 -16.95,-11.762 -4.54,-3.008 -9.17,-5.879 -13.8,-8.758 -5.75,-3.589 -11.53,-7.132 -17.39,-10.519 -4.76,-2.742 -9.58,-5.371 -14.41,-7.992 -5.93,-3.211 -11.91,-6.34 -17.95,-9.36 -4.95,-2.461 -9.95,-4.851 -14.98,-7.191 -6.13,-2.84 -12.32,-5.59 -18.56,-8.238 -5.44,-2.309 -10.9,-4.582 -16.41,-6.743 -4.83,-1.886 -9.7,-3.718 -14.6,-5.5 -6.06,-2.187 -12.18,-4.296 -18.34,-6.316 -4.96,-1.641 -9.94,-3.23 -14.95,-4.75 -6.29,-1.902 -12.64,-3.672 -19.02,-5.391 -5.07,-1.371 -10.13,-2.73 -15.25,-3.992 -6.55,-1.597 -13.18,-3.051 -19.82,-4.469 -5.12,-1.089 -10.22,-2.21 -15.4,-3.21 -6.88,-1.301 -13.88,-2.43 -20.88,-3.559 -5.09,-0.82 -10.14,-1.691 -15.29,-2.41 -7.4,-1.031 -14.92,-1.84 -22.43,-2.66 -4.9,-0.539 -9.75,-1.18 -14.69,-1.621 -8.41,-0.77 -16.96,-1.27 -25.5,-1.778 -4.21,-0.25 -8.34,-0.621 -12.57,-0.812 -12.86,-0.559 -25.85,-0.879 -39.02,-0.879 -295.47,0 -463.017,144.769 -551.54,266.199 -8.09,11.11 -15.735,22.33 -23.008,33.62 z M 638.691,489.738 H 430.938 l 213.386,207.973 c 38.742,-31.25 79.836,-59.609 122.707,-85.32 -44.636,-40.52 -87.445,-81.34 -128.34,-122.653 z m 35.864,-143.777 -29.246,68.93 c 24.086,25.109 48.851,50.05 74.226,74.839 5.336,5.219 10.52,10.481 15.93,15.68 l 21.39,-79.16 c -27.023,-25.43 -54.429,-52.102 -82.3,-80.289 z M 574.18,239.781 c -14.805,15.348 -32.336,33.649 -44.934,46.821 9.328,10.949 18.848,21.828 28.391,32.707 14.832,16.902 29.84,33.75 45.218,50.461 l 28.825,-67.95 c -18.942,-19.89 -38.145,-40.699 -57.5,-62.039 z m -130.305,64.18 c 2.328,4.738 4.57,9.781 6.555,15.34 h 32.031 c -2.891,-3.41 -5.926,-6.762 -8.793,-10.18 z M 550.746,150.691 539.367,136.07 526.469,189.852 476.93,178.191 v 60.801 l -53.149,3.938 58.981,10.211 c 16.613,-17.371 47.597,-49.731 65.761,-68.411 l 3,-35.21 z m -186.09,321.301 c 4.856,-7.273 9.172,-14.433 13.098,-21.472 0.293,-0.528 0.629,-1.071 0.918,-1.598 3.691,-6.731 6.887,-13.332 9.723,-19.832 0.335,-0.77 0.707,-1.551 1.035,-2.32 2.664,-6.309 4.875,-12.489 6.726,-18.551 0.266,-0.867 0.547,-1.739 0.797,-2.598 1.715,-5.961 3.008,-11.789 3.918,-17.48 0.141,-0.852 0.266,-1.7 0.387,-2.539 0.793,-5.661 1.191,-11.18 1.172,-16.543 -0.004,-0.75 -0.028,-1.489 -0.047,-2.227 -0.137,-5.391 -0.645,-10.641 -1.617,-15.691 -0.11,-0.582 -0.258,-1.141 -0.379,-1.719 -1.094,-5.152 -2.571,-10.141 -4.547,-14.91 -0.137,-0.332 -0.313,-0.653 -0.453,-0.981 -2.129,-4.949 -4.676,-9.711 -7.77,-14.211 -1.656,-2.41 -3.433,-4.761 -5.363,-7.039 -9.043,-10.64 -20.805,-18.812 -33.734,-24.832 l -38.637,-6.679 0.316,-3.68 c -17.711,-1.531 -35.676,0.922 -51.582,8.129 -38.086,17.312 -54.48,57.453 -46.164,113.031 l 5,33.391 -33.754,-0.852 c -61.41,-1.437 -104.0584,20.762 -120.2576,62.781 -15.6601,40.649 -2.9101,90.91 30.3281,119.5 36.4645,31.379 88.9845,30.172 147.8435,-3.328 l 19.051,-10.844 236.238,242.493 c 32.243,-37.899 66.93,-73.641 103.985,-106.832 L 351.57,491.59 Z M 2458.85,1638.11 c -13.96,6.31 -28.2,12.42 -42.55,18.42 -21.53,216.75 -106.56,415.04 -236.3,575.98 l 234.68,240.89 c 8.37,-4 16.67,-7.4 24.92,-10.36 4.73,-13.36 7.97,-28.84 8.78,-48.25 l 0.37,-8.95 c 10.89,-261.75 21.38,-516.91 21.33,-772.81 z m -37.56,-64.22 36.93,12.27 11.73,4.96 c -1.43,-292.73 -17.42,-586.95 -63.78,-893.69 -1.47,-9.739 -5.07,-19.219 -9.94,-28.078 l -204.28,209.519 c 143.9,185.019 229.91,417.149 229.91,669.119 0,8.68 -0.37,17.27 -0.57,25.9 z m -2155.856,32.3 c 454.882,219.86 1455.266,265.31 2098.126,10.54 -86.7,-31.13 -185.19,-56.59 -293.35,-76.41 -0.16,17.83 -1.47,33.3 -3.81,45.65 -8.15,42.85 -33.59,74.94 -86.34,98.4 -44.54,20.7 -109.32,34.9 -201.14,43.88 h -15.94 c -108.49,9.37 -252.19,12.22 -440.86,10.48 -134.89,-1.25 -245.87,-4.43 -337.128,-10.48 H 955.57 c -252.793,-19.1 -344.14,-62.86 -373.355,-153.79 -2.012,-6.27 -3.559,-13.56 -4.863,-21.31 -103.168,15.05 -207.344,32.73 -311.918,53.04 z m 4.511,913.95 -19.047,-10.84 c -58.886,-33.53 -111.347,-34.74 -147.781,-3.4 -33.1365,28.51 -45.8436,78.65 -30.2068,119.22 16.2148,42.07 58.7888,64.33 120.3748,62.84 l 33.754,-0.84 -5.004,33.39 c -5.781,38.63 0.32,70.28 17.656,91.55 14.633,17.95 37.321,28.63 63.875,30.08 h 0.012 c 10.973,0.57 21.801,-0.57 32.188,-2.98 5.847,-1.36 11.488,-3.24 16.953,-5.45 1.484,-0.6 2.969,-1.18 4.418,-1.84 2.117,-0.96 4.183,-1.99 6.215,-3.07 1.867,-1 3.671,-2.07 5.461,-3.17 1.589,-0.98 3.222,-1.9 4.746,-2.95 3.121,-2.16 6.078,-4.49 8.886,-6.95 1.035,-0.91 1.977,-1.89 2.969,-2.83 2.074,-1.99 4.055,-4.06 5.906,-6.22 0.825,-0.95 1.649,-1.9 2.418,-2.89 2.473,-3.14 4.797,-6.4 6.766,-9.84 2.355,-4.14 4.195,-8.52 5.801,-13.01 0.523,-1.48 0.949,-3.01 1.394,-4.52 0.934,-3.17 1.664,-6.42 2.246,-9.74 0.301,-1.75 0.657,-3.48 0.86,-5.27 3.785,-32.7 -8.645,-72.07 -36.879,-114.36 l -13.09,-19.6 257.465,-250.7 c -37.836,-32.51 -73.457,-67.49 -106.543,-104.81 z M 1934.19,1880.71 c -375.46,74.22 -806.23,78.61 -1224.424,12.34 113.855,217.11 344.864,360.63 608.994,360.63 269.11,0 503.94,-148.95 615.43,-372.97 z M 468.129,2745.13 H 2208.17 c 4,-24.93 13.58,-53.58 32.21,-85.78 l -249.3,-242.76 c -183.83,140.43 -413.23,224.07 -661.89,224.07 -250.83,0 -482.03,-85.17 -666.659,-227.83 L 433.645,2635.7 c 24.812,42.81 33.71,79.38 34.484,109.43 z M 4627.9,2320.48 c 53.36,-6.89 163.36,-32.55 163.36,-126.59 v -629.13 c 0,-64.03 -14.98,-111.23 -44.51,-140.29 -34.39,-33.87 -83.92,-38.65 -118.85,-39 z M 8408.54,489.738 H 8101.77 L 8475.9,593.551 8214.68,845.43 8202.44,736.82 c -19.13,9.282 -37.37,19.262 -55.17,29.571 32.7,76.519 58.96,153.668 72.74,223.191 5.88,2.34 11.48,5.078 16.45,8.547 20.58,14.421 31.28,36.661 31.43,60.461 9.56,-9.35 117.09,20.43 127.78,26.1 10.69,5.67 36.18,14.84 52.57,40.82 6.78,10.74 34.1,65.62 24.74,74.22 -118.11,108.33 -139.85,131.83 -188.32,196.34 27.04,9.43 51.41,25.76 71.06,48.58 34.68,40.26 53,99.18 53,170.4 0,77 -20.6,140 -59.61,182.21 -45.2,48.89 -111.04,66.17 -176.19,46.22 -65.64,-20.1 -115.12,-73.89 -133.44,-143.21 h -29.13 v 88.67 c 0,27.59 -11.39,44.5 -20.95,53.84 -12.45,12.19 -29.31,18.9 -47.42,18.9 -35.32,0 -71.84,-27.21 -71.84,-72.75 v -85.38 h -183.82 c 45.95,312.68 216.05,547.13 531.9,732.77 v -118.45 l 244.2,269.65 -394.63,106.35 90.65,-105.46 c -225.74,-62.16 -415.55,-188.1 -550.92,-366.15 -84.53,-111.18 -145.49,-240.77 -179.3,-378.18 v 373.67 c -0.74,95.44 -36.14,180.12 -102.37,244.89 -77.44,75.74 -190.75,118.81 -311.91,118.81 -2.48,0 -4.97,-0.02 -7.48,-0.06 -110.34,-1.61 -212.24,-39.35 -286.91,-106.28 -63.21,-56.67 -104.5,-131.81 -121.89,-220.63 v 331.71 h -920.44 l 65.41,-50.76 c 83.59,-64.88 83.59,-462.99 83.59,-923.97 0,-61.72 0.44,-123.08 0.87,-183.31 2.81,-392.31 5.46,-762.861 -123.64,-807.509 l 9.26,-55.149 h 192.76 c -25.86,-14.133 -50.52,-29.183 -73.4,-43.14 -16.36,-10.012 -31.92,-19.5 -46.43,-27.75 l 1.66,-4.864 h -635.13 c -102.97,100.602 -214.74,154.852 -333.1,161.223 -49.24,2.621 -95.76,-3.32 -138.59,-14.301 -45.14,63.289 -60.43,299.289 -53.8,475.88 189.92,7.49 448.75,93.36 448.75,312.15 0,124.08 0.98,233.7 2.01,349.76 1.07,121.41 2.17,246.96 2.17,395.5 0,252.85 -140,416.24 -356.67,416.24 h -424.11 l -11.44,-54.3 c -1.24,0.54 -1.84,1.06 -1.85,1.06 6.53,-5.64 23.46,-42.57 31.22,-115.6 18.41,-173.04 19.87,-469.49 19.87,-839.03 0,-367.91 -24.78,-686.961 -45.98,-848.39 -8.49,-64.52 -30.74,-87.141 -54.29,-111.071 l -51.92,-53.367 h 333.23 c -46.12,-28.844 -79.56,-57.543 -96.05,-72.933 l -3.02,-2.821 h -711.14 c -1.46,1.242 -2.89,2.352 -4.34,3.602 -33.07,28.402 -67.52,52.211 -102.86,72.152 h 476.12 v 470.648 l -51.21,-69.64 c -72.43,-98.531 -198.52,-111.891 -291.34,-81.449 -95.3,31.269 -152.2,102.859 -152.2,191.549 0,199.38 1.61,398.63 2.19,464.57 164.88,28.61 250.34,-107.3 273.24,-151.16 l 53.5,13.44 -4.78,421.13 -53.54,12.72 c -63.86,-123.34 -200.03,-158.22 -272.76,-163.63 0.75,91.89 3.11,372.61 4.54,438.79 3.21,147.98 116.12,207.11 211.84,212.78 101.66,5.9 213.03,-46.75 228.88,-159.24 l 56.43,3.95 v 416.24 h -1248.5 l 4.09,-31.96 c 19.06,-148.96 12.69,-232.69 1.2,-307.21 -18.95,75.31 -32.31,161.74 -34.8,311.28 l -0.47,27.89 h -140.06 c 4.34,27.67 1.87,56.41 -8.39,83.05 -12.9,33.46 -36.19,59 -67.22,75.89 h 992.94 c 52.6,0 95.39,42.8 95.39,95.69 0,52.6 -42.79,95.4 -95.39,95.4 H 431.039 c -33.031,0 -62.184,-16.88 -79.312,-42.54 -16.411,4.08 -33.614,6.06 -51.231,5.08 -42.703,-2.32 -79.91,-20.39 -104.766,-50.87 -16.191,-19.86 -33.46,-53.15 -32.503,-104.23 -69.9223,-6.45 -121.3051,-41.23 -143.2426,-98.15 -24.34768,-63.19 -5.3633,-138.28 46.1484,-182.6 50.6482,-43.58 120.1802,-48.03 193.2192,-13.16 L 475.094,2228.3 C 347.492,2068.43 263.797,1872.17 242.246,1657.79 c -27.644,-13.2 -53.48,-26.99 -77.101,-41.39 l -61.231,-37.38 70.234,-14.59 c 23.461,-4.88 43.754,-9.17 62.461,-13.11 0,-1.11 -0.066,-2.21 -0.066,-3.33 0,-248.81 83.805,-478.32 224.453,-662.189 L 250.063,669.289 C 177.02,704.148 107.453,699.68 56.7813,656.059 5.16406,611.648 -13.8594,536.449 10.5273,473.18 32.4609,416.262 83.8281,381.52 153.738,375.102 c -0.914,-65.661 28.297,-117.36 81.418,-141.5 20.438,-9.293 42.735,-13.731 65.102,-13.731 9.613,0 19.203,1.027 28.691,2.641 l -11.422,-28.563 102.692,-7.609 v -79.731 l 64.265,15.11 27.239,-113.53931 35.472,45.58981 18.348,-27.5 51.844,18.1407 L 605.031,189.5 c 42.203,46.992 83.024,89.84 122.907,129.801 H 1858.55 c 123.62,-85.903 237.18,-137.141 344.66,-156.242 33.8,-6 66.17,-8.778 97.42,-8.778 155.36,0 282.79,68.739 418.25,151.321 l 22.47,13.699 h 888.66 c 169.53,-110.492 306.54,-149.832 421.66,-149.832 158.64,0.023 275.71,74.652 378.99,140.523 l 14.7,9.309 h 592.59 c 145.97,-116.153 269.56,-158.879 381.26,-158.879 149.25,0 277.33,76.098 409.35,154.527 l 7.32,4.352 h 646.75 c 10.01,-7.871 20.16,-15.903 30.59,-24.18 C 6670.41,170.359 6885.05,-0.0195313 7159.19,0 c 2.94,0 5.91,0.0117188 8.87,0.0585938 C 7384.98,2.99219 7659.04,129.852 7863.73,319.301 h 544.81 c 52.61,0 95.4,38.23 95.4,85.23 0,46.989 -42.79,85.207 -95.4,85.207" /></g></g></svg>